<svg xmlns="http://www.w3.org/2000/svg" viewBox="1658.8 -1559.6 176.6 48"><path d="M1730.3-1559.6c-.1 0-.1 0 0 0-.9 0-1.2.9-1.3 1.8-.4 3.7-.8 6.5-1.1 11.5h-47.3c-2.1 0-4.3-.1-6.4-.1-4.1.1-7.3.9-9.7 1.9-1.9.8-3.9 2.3-4.8 4.4-1.3 2.9-1.1 7.7-.5 10.7 1.1 5.9 3.2 9.6 6.5 8.9 1.8-.7 2.4-1.9 3.6-3.2.8-.9 1.7-1.5 2.7-2s2-.9 3.1-1.2c2.7-.8 5.4-1.2 8.2-1.2 2.5.6 3.5 2.6 5.3 2.7 1.6 0 2.1-.6 2.6-1.2.7-.8 1.4-.8 2.6-.8.7 0 1.4-.1 2.1-.1 1.6 0 2.1-.1 3 .9.8 1 1.7 1.5 2.8 1.6.6 0 1.4-.1 2-.6 1.3-1.1 1.1-1.5 3.1-1.5 1.4 0 2.1-.1 3.5-.1 1.2 0 1.5.2 2.3 1 .5.5 1 1 1.8 1.1.4.1.9 0 1.3 0 1-.2 1.2-.7 2.5-1.5 1.5-.9 3.2-.3 4.6.5 1.7 1 2.3 1.5 4.4 1.2.2 4 .4 7.5.5 11.5 0 1 .4 1.8 1.5 1.8.7 0 1.5-.4 1.5-1.4l.2-10.5h5.9l.7-.7 45.1.4c24.2-1.2 42.2-6.1 52.5-15.5-11.5-4.2-25.3-6.7-42.1-7h-61.3c-.1-3.4-.2-5.1-.2-8.5.2-1.1.5-4.8-1.2-4.8zm-22.9 18.8c.2.1.6.2 1 .4s.9.5 1.5.7c.5.3 1.1.6 1.7.9.6.3 1.1.6 1.6.9.5.3.9.5 1.2.7.3.2.4.3.4.4l-2.1 5.6h-.4c-1.1 0-2-.2-2.8-.5-.7-.3-.9-.7-.7-1.3l1.1-3.2c0-.1-.1-.2-.4-.4-.3-.2-.6-.4-1-.6-.4-.2-.8-.4-1.2-.7-.4-.2-.7-.4-.9-.4-.3.1-.7.3-1.3.5-.6.2-1.2.4-1.7.7-.6.2-1.1.4-1.5.6-.4.2-.7.3-.7.4l-1.2 3.2c-.1.2-.3.5-.6.7-.3.2-.7.4-1.1.6-.9.3-2 .5-3.1.5h-.4l2.1-5.6c0-.1.3-.2.8-.4s1-.4 1.7-.7c.7-.3 1.4-.6 2.3-.9l2.4-.9c.8-.3 1.5-.5 2.1-.7.5-.3.9-.5 1.2-.5zm-37.8 0c1.7 0 3.1 1.4 3.1 3 0 1.7-1.4 3.1-3 3.1-1.7 0-3.1-1.4-3.1-3-.1-1.7 1.3-3.1 3-3.1zm10.8.3h4.5l-1.5 4.1 7.4-4.1h5l-7.8 4.4 6.4 4.9h-3.5c-.6 0-1 0-1.4-.1s-.7-.1-.9-.2c-.2-.1-.5-.2-.6-.3-.2-.1-.4-.2-.5-.3l-4.5-3.4-.9 2.5c-.1.3-.3.6-.6.8-.3.2-.7.4-1.1.6-.4.1-.9.2-1.4.3-.5.1-1 .1-1.6.1h-.4l3.4-9.3zm37.9 0h.5c1.2 0 2.1.1 2.8.4.7.2.9.7.7 1.3l-2.1 5.8h8.1l.2-.5 1.9-5.3.6-1.6h4.4l-2.7 7.4v.1l-.7 1.8h-.5c-.5 0-1 0-1.5-.1s-.8-.2-1.1-.4c-.3-.2-.5-.4-.6-.6v-.1c-.5.3-1 .6-1.6.8-1.7.6-3.6.6-5.4.5-.8 0-1.7-.1-2.5-.3-.8-.2-1.5-.5-2.1-.8-.6-.4-1-.8-.8-1.3l2.4-7.1zm23.6 0h.5l-1.3 3.7h9.2l1.3-3.7h.4c1.3 0 2.2.2 2.8.5.6.3.8.8.6 1.5l-2 5.4c-.1.3-.3.6-.6.9-.3.2-.7.4-1.1.6s-.9.3-1.4.4c-.5.1-1.1.1-1.6.1h-.4l1.3-3.7h-9.2l-1.3 3.7h-.5c-.5 0-1 0-1.5-.1s-.8-.2-1.1-.4c-.3-.2-.5-.4-.6-.6-.1-.2-.1-.5 0-.8l2-5.5c.1-.3.3-.5.6-.8.3-.2.7-.4 1.1-.6.4-.2.9-.3 1.4-.4.3-.2.8-.2 1.4-.2zm20.6 0h10c1.2 0 2.2.2 2.8.5.6.3.9.8.6 1.4l-2 5.5c-.1.3-.3.6-.6.8-.3.2-.7.4-1.1.6-.4.2-.9.3-1.4.3-.5.1-1.1.1-1.7.1h-10c-.6 0-1.1 0-1.5-.1-.5-.1-.8-.2-1.1-.4-.3-.2-.5-.4-.6-.6-.1-.2-.1-.5 0-.8l2-5.5c.1-.3.3-.5.6-.8.3-.2.7-.4 1.1-.6.4-.2.9-.3 1.4-.4h1.5zm16.7 0h4.5l-1.5 4.1 7.4-4.1h5l-7.8 4.4 6.4 4.9h-3.5c-.6 0-1 0-1.4-.1s-.7-.1-.9-.2c-.2-.1-.5-.2-.6-.3-.2-.1-.4-.2-.5-.3l-4.5-3.4-.9 2.5c-.1.3-.3.6-.6.8-.3.2-.7.4-1.1.6-.4.1-.9.2-1.4.3-.5.1-1 .1-1.6.1h-.4l3.4-9.3zm-17 2l-2 5.5h9.2l2-5.5h-9.2z" fill="#1b1c1e"/></svg>